<?xml version="1.0" encoding="utf-8"?>
<!-- Generator: Adobe Illustrator 27.5.0, SVG Export Plug-In . SVG Version: 6.00 Build 0)  -->
<svg version="1.1" id="Layer_1" xmlns="http://www.w3.org/2000/svg" xmlns:xlink="http://www.w3.org/1999/xlink" x="0px" y="0px"
	 viewBox="0 0 84.7 84.7" style="enable-background:new 0 0 84.7 84.7;" xml:space="preserve">
<style type="text/css">
	.st0{fill:#353D4C;}
	.st1{fill:#F9AFE4;}
	.st2{fill:#F288D4;}
	.st3{fill:#E064BD;}
	.st4{fill:#434A5C;}
	.st5{fill:#FFFFFF;}
</style>
<g>
	<g>
		<g>
			<g>
				<path class="st0" d="M61.3,67.9H20.6c-1.8,0-3.6-0.7-4.8-2c-1.3-1.3-2-3-2-4.8V26.4c0-0.9,0.2-1.8,0.5-2.6
					c0.3-0.8,0.8-1.6,1.5-2.2c0.6-0.6,1.4-1.1,2.2-1.5c0.8-0.3,1.7-0.5,2.6-0.5h40.7c1.8,0,3.6,0.7,4.8,2c1.3,1.3,2,3,2,4.8v34.6
					c0,1.8-0.7,3.6-2,4.8C64.9,67.2,63.1,67.9,61.3,67.9z"/>
				<path class="st0" d="M20.6,19.6c-0.9,0-1.8,0.1-2.7,0.5c-0.9,0.3-1.6,0.8-2.3,1.5c-0.7,0.6-1.2,1.4-1.5,2.2
					c-0.4,0.8-0.5,1.7-0.5,2.7c0,0.9,0.2,1.8,0.5,2.7c0.4,0.8,0.9,1.6,1.5,2.2c0.7,0.6,1.4,1.1,2.3,1.5c0.9,0.3,1.8,0.5,2.7,0.5
					h47.5v-6.8L20.6,19.6z"/>
				<path class="st1" d="M64.1,25.8L45.8,10.9c-0.4-0.3-0.8-0.5-1.2-0.6c-0.4-0.1-0.9-0.2-1.4-0.1s-0.9,0.2-1.3,0.4
					c-0.4,0.2-0.8,0.5-1.1,0.9L21.2,35.7h39.4l4-5c0.3-0.4,0.5-0.8,0.6-1.2c0.1-0.4,0.2-0.9,0.1-1.4c0-0.5-0.2-0.9-0.4-1.3
					C64.8,26.4,64.5,26,64.1,25.8z"/>
				<path class="st2" d="M55.3,35.7l3.5-4.3c-0.4-0.3-0.7-0.7-0.9-1.1c-0.2-0.4-0.4-0.9-0.4-1.4c-0.1-0.5,0-1,0.1-1.4
					c0.1-0.5,0.4-0.9,0.7-1.3l-11.7-9.4c-0.6,0.8-1.5,1.2-2.5,1.3c-1,0.1-1.9-0.2-2.7-0.8L26.5,35.8L55.3,35.7z"/>
				<path class="st3" d="M32.9,36.7h2.1c0,0,0,0,0,0c0-0.4,0.1-0.9,0.4-1.3l1.7,1.4h8.3c-0.2-0.4-0.5-0.7-0.8-0.9
					c-0.8-0.7-1.7-0.9-2.6-0.8c-0.9,0.2-1.9,0.7-3,1.6l0,0l-2.7-2.2c0.7-0.7,1.6-1.1,2.5-1.4l-0.6-2c-1.3,0.4-2.6,1.1-3.5,2.1
					l-0.7-0.6l-0.8,0.9l0.7,0.6C33.2,34.9,32.9,35.8,32.9,36.7z M49.4,25.6c1.4,1.1,1.6,3.1,0.5,4.5c-0.3,0.3-0.6,0.6-0.9,0.8
					c-0.4,0.2-0.8,0.3-1.2,0.4c-0.4,0-0.8,0-1.2-0.1c-0.4-0.1-0.8-0.3-1.1-0.6c-0.3-0.3-0.6-0.6-0.8-0.9c-0.2-0.4-0.3-0.8-0.4-1.2
					c0-0.4,0-0.8,0.1-1.2c0.1-0.4,0.3-0.8,0.6-1.1c0.5-0.6,1.3-1.1,2.1-1.1C48,24.8,48.8,25,49.4,25.6z"/>
				<path class="st4" d="M68.1,39.3v29.5c0,1.6-0.6,3.1-1.7,4.2c-1.1,1.1-2.6,1.7-4.2,1.7H19.7c-1.6,0-3.1-0.6-4.2-1.7
					s-1.7-2.6-1.7-4.2V26.4c0,3.8,3.1,6.9,6.9,6.9h41.5c1.6,0,3.1,0.6,4.2,1.7C67.5,36.2,68.1,37.7,68.1,39.3z"/>
				<path class="st5" d="M69.4,50.4v8.9c0,0.7-0.6,1.2-1.3,1.2H57c-1.4,0-2.6-1.2-2.6-2.6v-6.2c0-1.4,1.2-2.6,2.6-2.6h11.2
					C68.9,49.2,69.4,49.7,69.4,50.4z"/>
				<path class="st4" d="M59.1,56.7c1,0,1.8-0.8,1.8-1.8c0-1-0.8-1.8-1.8-1.8c-1,0-1.8,0.8-1.8,1.8C57.4,55.9,58.2,56.7,59.1,56.7z"
					/>
			</g>
		</g>
	</g>
</g>
</svg>
